<svg xmlns="http://www.w3.org/2000/svg" width="23.545" height="23.545" viewBox="0 0 23.545 23.545">
  <g id="Group_2" data-name="Group 2" transform="translate(1307.75 -661.25)">
    <path id="Path_12" data-name="Path 12" d="M-1295.978,661.25a11.783,11.783,0,0,0-11.772,11.772,11.783,11.783,0,0,0,11.772,11.772,11.783,11.783,0,0,0,11.772-11.772A11.783,11.783,0,0,0-1295.978,661.25Zm0,21.066a9.305,9.305,0,0,1-9.294-9.294,9.305,9.305,0,0,1,9.294-9.294,9.305,9.305,0,0,1,9.294,9.294A9.305,9.305,0,0,1-1295.978,682.316Z" fill="#4b5c5c"/>
    <path id="Path_13" data-name="Path 13" d="M-1289.7,680.854a.873.873,0,0,1-.39.087.934.934,0,0,1-.843-.539l-1.71-3.662a1.542,1.542,0,0,1-1.227-1l-4.2,1.4a.314.314,0,0,1-.074.012.238.238,0,0,1-.223-.161.244.244,0,0,1,.149-.3l4.257-1.419v-.062a1.541,1.541,0,0,1,.775-1.338V667.62a.621.621,0,0,1,.62-.62.621.621,0,0,1,.62.62v6.109a1.555,1.555,0,0,1,1.084,1.481,1.507,1.507,0,0,1-.142.644l1.76,3.767A.924.924,0,0,1-1289.7,680.854Z" transform="translate(-3.566 -2.187)" fill="#4b5c5c"/>
  </g>
</svg>
