<svg xmlns="http://www.w3.org/2000/svg" width="26.915" height="16.49" viewBox="0 0 26.915 16.49">
  <g id="Group_3" data-name="Group 3" transform="translate(1398.521 -636.714)">
    <path id="Path_14" data-name="Path 14" d="M-1397.107,638.849a3.876,3.876,0,0,1,5.482,0l.849.849a3.876,3.876,0,0,0,5.482,0l.646-.646a4.346,4.346,0,0,1,6.146,0h0a3.876,3.876,0,0,0,5.482,0" fill="none" stroke="#4b5c5d" stroke-linecap="round" stroke-miterlimit="10" stroke-width="2"/>
    <path id="Path_15" data-name="Path 15" d="M-1397.107,660.849a3.876,3.876,0,0,1,5.482,0l.849.849a3.876,3.876,0,0,0,5.482,0l.646-.646a4.346,4.346,0,0,1,6.146,0h0a3.876,3.876,0,0,0,5.482,0" transform="translate(0 -16.315)" fill="none" stroke="#4b5c5d" stroke-linecap="round" stroke-miterlimit="10" stroke-width="2"/>
    <path id="Path_16" data-name="Path 16" d="M-1397.107,682.849a3.876,3.876,0,0,1,5.482,0l.849.849a3.876,3.876,0,0,0,5.482,0l.646-.646a4.346,4.346,0,0,1,6.146,0h0a3.876,3.876,0,0,0,5.482,0" transform="translate(0 -32.63)" fill="none" stroke="#4b5c5d" stroke-linecap="round" stroke-miterlimit="10" stroke-width="2"/>
  </g>
</svg>
