<svg xmlns="http://www.w3.org/2000/svg" width="425.222" height="181" viewBox="0 0 425.222 181">
  <g id="lake_map" data-name="lake map" transform="translate(-966 -671)">
    <path id="Path_9" data-name="Path 9" d="M-1597.465,629.177a20.042,20.042,0,0,0,10.827-1.895c5.414-2.707,10.827,1.353,10.827,1.353s6.767-.271,8.661.812c0,0,4.872-.271,6.225.541s14.616-8.12,14.616-8.12l.812-1.353,3.248-2.165,2.978-4.331,14.346-10.286s11.91-1.624,15.158-2.977,10.827.271,16.782,4.872l3.248-.271,14.346,6.767h4.331l8.661,4.06h1.353l2.436,1.624,2.977,2.707,1.895.541,1.353,2.707,3.789,1.624,2.707,2.707,4.06.812,14.616,9.474,2.165.541,1.353,1.895,3.248,4.331,3.519.812,2.436,3.248,4.6,3.248,7.308,8.391,1.624,2.977,5.955,3.248.812,6.767,5.414,5.684,7.037,3.789V689l10.286,9.2,3.789,1.624,6.225,13.534,4.06,7.579s-2.165,4.06,2.165,5.684,4.6,7.579,4.6,7.579l1.895.812,1.354,3.519,1.624,2.165-.812,2.165.271,4.331-1.895,2.977-1.895,9.2,4.331,5.143s-1.083,9.2,4.331,11.639c0,0,1.083.812-2.977,2.707a2.575,2.575,0,0,0-1.083,2.436s-3.383-.677-.947-4.2-4.06-13.8-4.06-13.8l-1.624-2.436v-2.436s0-1.624-1.895-1.353a11.455,11.455,0,0,1-4.331-.541l-2.165.812-3.789-2.165-1.895,1.083-9.474-.541-4.6-2.436-2.436.541-7.308-2.436h-4.6l-4.872-3.248-5.143-.812-6.225-5.955-4.331.271-4.06-5.143-5.684-4.06s-3.248-2.977-4.872-12.992l-2.977-3.519-1.083-3.248-3.789-7.037-.271-4.331-13.263-13.263-1.624-3.519s-6.5-5.143-6.767-5.684-6.226-10.286-6.226-10.286l-6.767-11.1-8.932-8.391s-36.27-24.631-34.375,2.707c0,0-.812,4.6-20.03,8.661,0,0-11.972-5.455-15.97.541-.541.812-4.6,6.5-4.6,6.5l-1.353,2.436-2.165,2.436-11.1,6.225-10.286,3.789-3.248,1.353-2.436-.271-3.519.812-4.06.541-2.977-1.353-3.519,1.083-5.955,1.083-2.977-.541-1.083.812-3.789-1.083-4.6.271-4.872-1.353-5.413.271-6.5-.271-5.413-1.895-3.248-2.707a3.987,3.987,0,0,0-4.872,1.353,18.049,18.049,0,0,1-3.789,4.06s-.541,4.331-4.872,4.6l-8.932,1.624-2.436-.812-8.391,1.624-2.165,2.436-3.519-.541-4.06,3.248-4.872.541-7.849,1.353-4.331-2.707-10.827-.541-7.579,1.624h-3.248l-3.789-1.083-9.744.812-8.661-2.707-6.5-7.038s-1.895-.541-4.6-11.1l-1.353-3.519,1.624-4.06-.812-4.331.541-2.977-.812-1.353-2.436.271v-.812l-.812-1.353.812-1.624v-1.624l-2.436-3.789-.812-1.353,1.353-1.353v-2.977l.812-2.707,2.436-2.707,2.165-3.248,3.519-3.248,2.436-.271,2.977-2.165,1.443-.987a1.808,1.808,0,0,1,2.032-.011c2.175,1.463,8.679,4.052,23.722-1.591a2.083,2.083,0,0,1,2.314.59l.67.781h2.977l2.707,1.083,3.789-.271,2.707,1.895s2.977.271,3.789,1.083a5.9,5.9,0,0,1,1.083,2.707l.271,1.353h-1.083v.812l4.6.812h3.248a2.113,2.113,0,0,1,1.083.812c.271.541,13.263,0,13.263,0l8.932,2.436s15.97-.271,19.759-2.165,15.7-1.895,15.7-1.895,6.767-4.6,12.992-5.143a34.813,34.813,0,0,0,9.474-1.895l7.849-.541s2.977,2.977,10.015-1.083" transform="translate(2732.5 70.704)" fill="rgba(255,255,255,0.29)"/>
    <path id="Path_10" data-name="Path 10" d="M-1501.261,724.255a3.236,3.236,0,0,0-2.85,1.71,9.818,9.818,0,0,0-4.061-1.735,11.44,11.44,0,0,1-3.273-1.21,22.441,22.441,0,0,0-4.589-2.111c-2.694-1-5.239-1.943-6.795-4.676a8.36,8.36,0,0,0-5.476-4.065,3.241,3.241,0,0,0-3.155-2.528,3.235,3.235,0,0,0-3.1,2.333,63.075,63.075,0,0,0-11.249-.346c-5.937.154-12.074.314-16.989-1.77a36.782,36.782,0,0,0-12.708-2.915,3.24,3.24,0,0,0-3.136-2.444,3.241,3.241,0,0,0-3.19,2.706,33.753,33.753,0,0,1-7.908,3.026c-3.332.972-6.479,1.889-8.817,3.737-8.118,6.417-17.456,8.238-26.335,9.25a31.006,31.006,0,0,0-10.86,3.109,3.24,3.24,0,0,0-3.017-2.073,3.244,3.244,0,0,0-3.236,3.247c0,.038,0,.076,0,.114-4.069,2.17-4.735,6.032-5.382,9.775a17.128,17.128,0,0,1-1.688,5.81,16.106,16.106,0,0,0-2.278,6.135c-.5,2.828-.868,4.869-12.484,13.491a22.428,22.428,0,0,0-4.357,4.17,3.221,3.221,0,0,0-2.394-1.066,3.24,3.24,0,0,0-3.208,2.836c-7.1.988-13.7-.725-19.551-2.246-5.708-1.483-11.1-2.885-15.8-1.413-10.653,3.337-13.309-4.149-15.652-10.754-1.383-3.9-2.578-7.263-5.231-8.124-1.44-.468-3.136-.106-5.155,1.109a3.243,3.243,0,0,0-3.079-2.246,3.244,3.244,0,0,0-3.235,3.247,3.244,3.244,0,0,0,3.235,3.247,3.24,3.24,0,0,0,3.192-2.723c1.936-1.288,3.451-1.732,4.627-1.35,2.02.658,3.163,3.881,4.376,7.293,1.192,3.361,2.542,7.169,5.069,9.675,2.966,2.944,6.975,3.572,12.255,1.919,4.33-1.359,9.3-.068,15.062,1.429,4.732,1.229,9.949,2.584,15.574,2.584a32.55,32.55,0,0,0,4.425-.295,3.243,3.243,0,0,0,3.1,2.306,3.244,3.244,0,0,0,3.235-3.247,3.162,3.162,0,0,0-.121-.88,20.152,20.152,0,0,1,4.438-4.384c12.047-8.941,12.43-11.087,13.01-14.34a14.8,14.8,0,0,1,2.111-5.683,18.377,18.377,0,0,0,1.858-6.27c.6-3.472,1.168-6.76,4.4-8.652a3.234,3.234,0,0,0,2.885,1.781,3.244,3.244,0,0,0,3.225-2.993,29,29,0,0,1,10.8-3.2c9.078-1.034,18.634-2.9,27.019-9.531,2.13-1.683,5.155-2.565,8.358-3.5a37.983,37.983,0,0,0,7.628-2.823,3.243,3.243,0,0,0,3.093,2.287,3.242,3.242,0,0,0,3.187-2.693,36.09,36.09,0,0,1,12.131,2.8c5.185,2.2,11.47,2.032,17.55,1.875a61.057,61.057,0,0,1,11.111.346,3.244,3.244,0,0,0,3.206,2.809,3.241,3.241,0,0,0,3.165-2.574,7.006,7.006,0,0,1,4.3,3.342c1.8,3.161,4.7,4.235,7.5,5.274a21.409,21.409,0,0,1,4.319,1.976,12.42,12.42,0,0,0,3.667,1.386c1.675.441,3.257.855,4.02,2.03a3.242,3.242,0,0,0,3.233,3.18,3.244,3.244,0,0,0,3.235-3.247A3.244,3.244,0,0,0-1501.261,724.255Zm-237,25.98a1.893,1.893,0,0,1-1.887-1.894,1.893,1.893,0,0,1,1.887-1.894,1.893,1.893,0,0,1,1.887,1.894A1.893,1.893,0,0,1-1738.264,750.235Zm67.677,20.838a1.893,1.893,0,0,1-1.887-1.894,1.893,1.893,0,0,1,1.887-1.894,1.893,1.893,0,0,1,1.887,1.894A1.893,1.893,0,0,1-1670.588,771.073Zm31.816-41.676a1.893,1.893,0,0,1-1.887-1.894,1.893,1.893,0,0,1,1.887-1.894,1.893,1.893,0,0,1,1.887,1.894A1.893,1.893,0,0,1-1638.771,729.4Zm60.127-19.755a1.893,1.893,0,0,1-1.887-1.894,1.893,1.893,0,0,1,1.887-1.894,1.893,1.893,0,0,1,1.887,1.894A1.893,1.893,0,0,1-1578.644,709.642Zm47.185,5.142a1.893,1.893,0,0,1-1.887-1.894,1.893,1.893,0,0,1,1.887-1.894,1.893,1.893,0,0,1,1.887,1.894A1.893,1.893,0,0,1-1531.459,714.784Zm30.2,14.614a1.893,1.893,0,0,1-1.887-1.894,1.893,1.893,0,0,1,1.887-1.894,1.893,1.893,0,0,1,1.887,1.894A1.893,1.893,0,0,1-1501.261,729.4Z" transform="translate(2713.665 -4.5)" fill="#fff"/>
  </g>
</svg>
