<svg xmlns="http://www.w3.org/2000/svg" width="11.205" height="14.198" viewBox="0 0 11.205 14.198">
  <path id="Path_1" data-name="Path 1" d="M-2999.608-2707.67a5.6,5.6,0,0,0-5.6,5.6q.007.292.028.571a0,0,0,0,0,0,0,9.832,9.832,0,0,0,5.573,8.023,9.831,9.831,0,0,0,5.573-8.023,0,0,0,0,0,0,0q.021-.279.029-.571A5.6,5.6,0,0,0-2999.608-2707.67Zm0,9.233a3.825,3.825,0,0,1-3.824-3.824,3.825,3.825,0,0,1,3.824-3.824,3.824,3.824,0,0,1,3.824,3.824A3.824,3.824,0,0,1-2999.608-2698.437Z" transform="translate(3005.21 2707.67)" fill="#fff"/>
</svg>
