<svg xmlns="http://www.w3.org/2000/svg" width="22" height="22" viewBox="0 0 22 22">
  <path id="Path_11" data-name="Path 11" d="M-1370.639,647.791v0a1.233,1.233,0,0,0-.2-.264l-5.081-5.081a9.231,9.231,0,0,0,1.945-5.678,9.272,9.272,0,0,0-9.263-9.263,9.272,9.272,0,0,0-9.263,9.263,9.272,9.272,0,0,0,9.263,9.263,9.23,9.23,0,0,0,5.678-1.945l5.081,5.081a1.24,1.24,0,0,0,.264.2h0a1.158,1.158,0,0,0,.551.139,1.158,1.158,0,0,0,1.158-1.158A1.158,1.158,0,0,0-1370.639,647.791Zm-12.6-4.08a6.956,6.956,0,0,1-6.947-6.947,6.956,6.956,0,0,1,6.947-6.947,6.956,6.956,0,0,1,6.947,6.947,6.886,6.886,0,0,1-1.288,4.02,6.888,6.888,0,0,1-1.64,1.64A6.887,6.887,0,0,1-1383.237,643.711Z" transform="translate(1392.5 -627.5)" fill="#fff"/>
</svg>
