<svg xmlns="http://www.w3.org/2000/svg" width="148.414" height="53" viewBox="0 0 148.414 53">
  <g id="time_and_temp" data-name="time and temp" transform="translate(-1107.586 -809.455)">
    <text id="_01d_07h_45_min" data-name="01d 07h 45 min" transform="translate(1146 826.728)" fill="#4b5c5c" font-size="16" font-family="TrebuchetMS, Trebuchet MS"><tspan x="0" y="0">01d 07h 45 min</tspan></text>
    <text id="_29" data-name="29" transform="translate(1138 856)" fill="#4b5c5c" font-size="15" font-family="TrebuchetMS, Trebuchet MS"><tspan x="0" y="0">29</tspan></text>
    <text id="_38" data-name="38" transform="translate(1216 857.455)" fill="#4b5c5c" font-size="16" font-family="TrebuchetMS, Trebuchet MS"><tspan x="0" y="0">38</tspan></text>
    <text id="C" transform="translate(1160 857.455)" fill="#4b5c5c" font-size="16" font-family="TrebuchetMS, Trebuchet MS"><tspan x="0" y="0">C</tspan></text>
    <text id="C-2" data-name="C" transform="translate(1240 857.455)" fill="#4b5c5c" font-size="16" font-family="TrebuchetMS, Trebuchet MS"><tspan x="0" y="0">C</tspan></text>
    <g id="Group_2" data-name="Group 2" transform="translate(2416.75 148.205)">
      <path id="Path_12" data-name="Path 12" d="M-1295.978,661.25a11.783,11.783,0,0,0-11.772,11.772,11.783,11.783,0,0,0,11.772,11.772,11.783,11.783,0,0,0,11.772-11.772A11.783,11.783,0,0,0-1295.978,661.25Zm0,21.066a9.305,9.305,0,0,1-9.294-9.294,9.305,9.305,0,0,1,9.294-9.294,9.305,9.305,0,0,1,9.294,9.294A9.305,9.305,0,0,1-1295.978,682.316Z" fill="#4b5c5c"/>
      <path id="Path_13" data-name="Path 13" d="M-1289.7,680.854a.873.873,0,0,1-.39.087.934.934,0,0,1-.843-.539l-1.71-3.662a1.542,1.542,0,0,1-1.227-1l-4.2,1.4a.314.314,0,0,1-.074.012.238.238,0,0,1-.223-.161.244.244,0,0,1,.149-.3l4.257-1.419v-.062a1.541,1.541,0,0,1,.775-1.338V667.62a.621.621,0,0,1,.62-.62.621.621,0,0,1,.62.62v6.109a1.555,1.555,0,0,1,1.084,1.481,1.507,1.507,0,0,1-.142.644l1.76,3.767A.924.924,0,0,1-1289.7,680.854Z" transform="translate(-3.566 -2.187)" fill="#4b5c5c"/>
    </g>
    <g id="Group_3" data-name="Group 3" transform="translate(2506.107 209.252)">
      <path id="Path_14" data-name="Path 14" d="M-1397.107,638.849a3.876,3.876,0,0,1,5.482,0l.849.849a3.876,3.876,0,0,0,5.482,0l.646-.646a4.346,4.346,0,0,1,6.146,0h0a3.876,3.876,0,0,0,5.482,0" fill="none" stroke="#4b5c5d" stroke-linecap="round" stroke-miterlimit="10" stroke-width="2"/>
      <path id="Path_15" data-name="Path 15" d="M-1397.107,660.849a3.876,3.876,0,0,1,5.482,0l.849.849a3.876,3.876,0,0,0,5.482,0l.646-.646a4.346,4.346,0,0,1,6.146,0h0a3.876,3.876,0,0,0,5.482,0" transform="translate(0 -16.315)" fill="none" stroke="#4b5c5d" stroke-linecap="round" stroke-miterlimit="10" stroke-width="2"/>
      <path id="Path_16" data-name="Path 16" d="M-1397.107,682.849a3.876,3.876,0,0,1,5.482,0l.849.849a3.876,3.876,0,0,0,5.482,0l.646-.646a4.346,4.346,0,0,1,6.146,0h0a3.876,3.876,0,0,0,5.482,0" transform="translate(0 -32.63)" fill="none" stroke="#4b5c5d" stroke-linecap="round" stroke-miterlimit="10" stroke-width="2"/>
    </g>
    <g id="Ellipse_3" data-name="Ellipse 3" transform="translate(1154 846)" fill="none" stroke="#4b5c5c" stroke-width="1">
      <circle cx="2.5" cy="2.5" r="2.5" stroke="none"/>
      <circle cx="2.5" cy="2.5" r="2" fill="none"/>
    </g>
    <g id="Ellipse_4" data-name="Ellipse 4" transform="translate(1234 846)" fill="none" stroke="#4b5c5c" stroke-width="1">
      <circle cx="2.5" cy="2.5" r="2.5" stroke="none"/>
      <circle cx="2.5" cy="2.5" r="2" fill="none"/>
    </g>
    <path id="Path_18" data-name="Path 18" d="M-1449.651,531.636h-2.322a5.53,5.53,0,0,0-1.112-2.547l1.625-1.625a.684.684,0,0,0,0-.969.684.684,0,0,0-.969,0l-1.625,1.625a5.522,5.522,0,0,0-2.743-1.14v-2.295a.686.686,0,0,0-.685-.685.686.686,0,0,0-.685.685v2.295a5.524,5.524,0,0,0-2.584,1.02l-1.645-1.645a.688.688,0,0,0-.969,0,.684.684,0,0,0,0,.969l1.609,1.609a5.56,5.56,0,0,0-1.236,2.7h-2.322a.686.686,0,0,0-.685.685.686.686,0,0,0,.685.685h2.275a5.519,5.519,0,0,0,1.159,2.939l-1.625,1.625a.684.684,0,0,0,0,.969.685.685,0,0,0,.486.2.683.683,0,0,0,.484-.2l1.625-1.625a5.519,5.519,0,0,0,2.743,1.139v2.295a.686.686,0,0,0,.685.685.686.686,0,0,0,.685-.685v-2.295a5.549,5.549,0,0,0,2.9-1.263l1.609,1.609a.677.677,0,0,0,.484.2.682.682,0,0,0,.486-.2.688.688,0,0,0,0-.969l-1.645-1.645a5.515,5.515,0,0,0,1.04-2.78h2.275a.686.686,0,0,0,.685-.685A.686.686,0,0,0-1449.651,531.636Zm-4.3,3.166a4.185,4.185,0,0,1-.924,1.014,4.156,4.156,0,0,1-1.922.854,4.174,4.174,0,0,1-.685.057,4.174,4.174,0,0,1-.685-.057,4.134,4.134,0,0,1-1.764-.734,4.138,4.138,0,0,1-.969-.969,4.146,4.146,0,0,1-.762-1.96,4.018,4.018,0,0,1-.03-.49,4.085,4.085,0,0,1,.094-.881,4.168,4.168,0,0,1,.817-1.727,4.184,4.184,0,0,1,1.014-.924,4.119,4.119,0,0,1,1.6-.621,4.167,4.167,0,0,1,.685-.057,4.167,4.167,0,0,1,.685.057,4.131,4.131,0,0,1,1.764.734,4.138,4.138,0,0,1,.969.969,4.118,4.118,0,0,1,.7,1.568,4.085,4.085,0,0,1,.094.881,4.043,4.043,0,0,1-.029.49A4.162,4.162,0,0,1-1453.951,534.8Z" transform="translate(2660 319.455)" fill="#4b5c5c"/>
  </g>
</svg>
